<?xml version="1.0" encoding="UTF-8" standalone="no"?>
<!DOCTYPE svg PUBLIC "-//W3C//DTD SVG 1.1//EN" "http://www.w3.org/Graphics/SVG/1.1/DTD/svg11.dtd">
<svg width="100%" height="100%" viewBox="0 0 1746 297" version="1.1" xmlns="http://www.w3.org/2000/svg" xmlns:xlink="http://www.w3.org/1999/xlink" xml:space="preserve" xmlns:serif="http://www.serif.com/" style="fill-rule:evenodd;clip-rule:evenodd;stroke-linejoin:round;stroke-miterlimit:2;">
    <g id="Group_264" transform="matrix(0.999,0.035,-0.035,0.999,67.553,-868.073)">
        <g id="Path_61" transform="matrix(1.01315,-1.60331e-05,-1.74118e-05,-1.10026,-167.828,1093.48)">
            <path d="M425.046,75.128C597.93,73.275 631.254,-19.233 830.728,-25.916C1030.2,-32.599 992.821,46.984 1248.86,44.307C1345.38,43.3 1466.17,-4.377 1565.7,-12.12C1730.87,-24.971 1856.84,0 1856.84,0L1856.84,50C1856.84,50 1728.56,31.413 1577.72,44.89C1471.36,54.39 1357.67,96.89 1251.9,98.39C997.03,101.99 1030.31,25.399 828.787,29.641C627.266,33.883 572.226,126.678 420.03,122.85C278.447,122.85 121.8,69.572 121.8,69.572L126.447,25.362C126.447,25.362 322.456,75.128 425.046,75.128Z" style="fill:rgb(252,179,51);fill-rule:nonzero;"/>
        </g>
        <g id="Path_63" transform="matrix(1.01024,-1.59872e-05,-1.86762e-05,-1.18016,-171.572,1005.46)">
            <path d="M425.046,75.128C584.513,77.112 633.456,-14.595 832.93,-21.278C1032.4,-27.961 992.821,46.983 1248.86,44.307C1345.38,43.3 1466.17,-4.377 1565.7,-12.12C1730.87,-24.971 1856.84,0 1856.84,0L1856.84,50C1856.84,50 1728.56,31.413 1577.72,44.89C1471.36,54.39 1357.67,96.89 1251.9,98.39C997.03,101.99 1037.29,25.642 835.771,29.885C634.251,34.128 572.226,126.685 420.03,122.853C278.447,122.85 121.8,69.572 121.8,69.572L126.447,25.362C126.447,25.362 322.456,75.128 425.046,75.128Z" style="fill:rgb(30,31,26);fill-rule:nonzero;"/>
        </g>
        <g id="Path_62" transform="matrix(1.01169,-1.60102e-05,-1.83093e-05,-1.15698,-169.66,1048.88)">
            <path d="M425.046,75.128C590.858,77.856 633,-13.4 832.476,-20.086C1031.95,-26.772 992.821,46.984 1248.86,44.307C1345.38,43.3 1466.17,-4.377 1565.7,-12.12C1730.87,-24.971 1856.84,0 1856.84,0L1856.84,50C1856.84,50 1728.56,31.413 1577.72,44.89C1471.36,54.39 1357.67,96.89 1251.9,98.39C997.03,101.99 1038.64,19.29 837.124,23.536C635.603,27.782 572.226,126.678 420.03,122.85C278.447,122.85 121.8,69.572 121.8,69.572L126.447,25.362C126.447,25.362 322.456,75.128 425.046,75.128Z" style="fill:rgb(229,69,47);fill-rule:nonzero;"/>
        </g>
    </g>
</svg>
